<svg xmlns="http://www.w3.org/2000/svg" xmlns:xlink="http://www.w3.org/1999/xlink" width="611" zoomAndPan="magnify" viewBox="0 0 458.25 458.249989" height="611" preserveAspectRatio="xMidYMid meet" version="1.2"><g id="7cd344a561"><path style=" stroke:none;fill-rule:nonzero;fill:#b91617;fill-opacity:1;" d="M 217.03125 20.445312 L 218.101562 20.4375 C 232.875 20.351562 232.875 20.351562 239.265625 21.617188 L 240.457031 21.851562 C 257.285156 25.207031 272.917969 31.84375 286.164062 42.871094 L 286.738281 43.339844 C 291.523438 47.300781 295.882812 51.535156 299.722656 56.425781 C 300.058594 56.832031 300.394531 57.238281 300.734375 57.640625 C 305.835938 63.789062 309.753906 70.664062 313.695312 77.585938 C 314.765625 79.457031 315.855469 81.316406 316.941406 83.175781 C 319.882812 88.207031 322.789062 93.253906 325.699219 98.304688 L 327.777344 101.90625 L 328.464844 103.105469 C 329.984375 105.734375 331.511719 108.355469 333.042969 110.976562 C 335.027344 114.371094 336.988281 117.785156 338.933594 121.203125 C 340.839844 124.546875 342.765625 127.875 344.710938 131.195312 C 346.507812 134.269531 348.289062 137.355469 350.066406 140.441406 C 351.585938 143.082031 353.121094 145.71875 354.660156 148.351562 C 356.625 151.714844 358.574219 155.089844 360.503906 158.480469 C 361.742188 160.648438 362.980469 162.820312 364.214844 164.992188 C 364.820312 166.0625 365.433594 167.132812 366.042969 168.203125 C 366.164062 168.414062 366.28125 168.628906 366.40625 168.847656 C 368.222656 172.027344 370.074219 175.179688 371.949219 178.328125 C 374.050781 181.851562 376.085938 185.40625 378.082031 188.996094 C 379.722656 191.945312 381.414062 194.863281 383.121094 197.777344 C 384.769531 200.589844 386.390625 203.414062 388.003906 206.242188 C 389.894531 209.558594 391.792969 212.875 393.707031 216.179688 C 395.609375 219.472656 397.5 222.769531 399.386719 226.074219 C 401.953125 230.570312 404.535156 235.0625 407.128906 239.546875 C 407.820312 240.742188 408.507812 241.9375 409.199219 243.136719 C 411.410156 246.980469 413.636719 250.820312 415.875 254.652344 L 417.144531 256.835938 C 417.800781 257.957031 418.457031 259.078125 419.113281 260.203125 C 427.871094 275.109375 435.113281 290.21875 437.859375 307.417969 L 438.019531 308.355469 C 440.984375 325.90625 438.730469 344.507812 432.734375 361.1875 C 429.011719 371.0625 424.175781 380.410156 417.707031 388.757812 C 417.445312 389.101562 417.183594 389.445312 416.910156 389.796875 C 416.214844 390.683594 415.5 391.558594 414.773438 392.421875 L 414.320312 392.976562 C 410.445312 397.683594 406.25 402.195312 401.4375 405.960938 C 400.789062 406.472656 400.152344 407 399.53125 407.546875 C 385.296875 419.953125 366.773438 427.25 348.453125 430.894531 C 346.507812 431.238281 344.5625 431.46875 342.59375 431.628906 L 341.460938 431.722656 C 322.515625 433.191406 304.675781 429.492188 287.546875 421.472656 C 278.539062 417.152344 270.039062 411.875 261.980469 405.980469 L 261.101562 405.339844 C 251.742188 398.53125 242.761719 391.574219 237.617188 380.90625 C 236.734375 378.816406 236.125 376.679688 235.601562 374.46875 L 235.386719 373.628906 C 234.550781 368.203125 235.316406 362.992188 237.128906 357.871094 C 238.738281 353.765625 240.941406 350.496094 244.027344 347.355469 L 244.777344 346.589844 C 249.011719 342.5625 254.421875 340 260.058594 338.628906 C 265.429688 337.660156 271.398438 337.53125 276.617188 339.230469 L 277.738281 339.660156 L 278.652344 340 C 282.058594 341.488281 285.027344 344.054688 287.996094 346.257812 C 288.574219 346.679688 289.148438 347.101562 289.726562 347.527344 C 292.0625 349.246094 294.394531 350.96875 296.726562 352.695312 C 298.175781 353.769531 299.628906 354.835938 301.085938 355.902344 C 301.632812 356.304688 302.175781 356.703125 302.71875 357.109375 C 309.890625 362.429688 317.851562 366.730469 326.835938 367.875 C 332.453125 368.28125 337.910156 367.976562 343.324219 366.410156 L 344.671875 366.019531 C 352.015625 363.621094 359.101562 359.117188 364.304688 353.410156 C 369.460938 347.320312 372.914062 340.796875 374.835938 333.066406 L 375.109375 331.964844 C 376.589844 324.742188 375.371094 317.347656 373.164062 310.417969 C 370.828125 303.558594 367.199219 297.257812 363.488281 291.070312 C 362.675781 289.714844 361.867188 288.359375 361.0625 287.003906 L 360.625 286.265625 L 359.734375 284.765625 L 358.386719 282.5 C 355.140625 277.039062 351.972656 271.53125 348.824219 266.015625 L 348.453125 265.363281 L 346.960938 262.75 C 345.261719 259.773438 343.546875 256.808594 341.8125 253.851562 C 340.085938 250.902344 338.390625 247.933594 336.730469 244.945312 C 334.644531 241.203125 332.507812 237.5 330.339844 233.804688 C 328.980469 231.476562 327.628906 229.144531 326.285156 226.808594 C 324.523438 223.746094 322.753906 220.695312 320.972656 217.648438 C 318.507812 213.429688 316.066406 209.199219 313.628906 204.96875 C 312.484375 202.980469 311.339844 200.996094 310.195312 199.011719 C 309.605469 197.988281 309.015625 196.96875 308.425781 195.945312 L 307.835938 194.917969 L 307.417969 194.195312 L 306.316406 194.195312 C 305.640625 195.089844 305.640625 195.089844 305.003906 196.261719 C 304.878906 196.480469 304.753906 196.695312 304.625 196.917969 C 304.214844 197.625 303.8125 198.339844 303.410156 199.050781 C 303.128906 199.542969 302.84375 200.03125 302.5625 200.523438 C 301.996094 201.503906 301.433594 202.484375 300.871094 203.464844 C 299.863281 205.222656 298.824219 206.957031 297.777344 208.691406 C 297.601562 208.984375 297.425781 209.273438 297.246094 209.574219 C 296.554688 210.71875 295.867188 211.859375 295.179688 213 C 292.535156 217.382812 289.929688 221.792969 287.347656 226.214844 C 285.917969 228.660156 284.476562 231.09375 283.019531 233.519531 C 281.488281 236.070312 279.964844 238.628906 278.449219 241.1875 L 277.539062 242.722656 L 274.390625 248.023438 C 270.984375 253.773438 267.578125 259.523438 264.179688 265.28125 C 259.613281 273.007812 255.039062 280.734375 250.453125 288.453125 C 246.390625 295.296875 242.335938 302.152344 238.3125 309.019531 C 235.644531 313.574219 232.960938 318.121094 230.273438 322.660156 C 227.691406 327.023438 225.117188 331.394531 222.554688 335.769531 C 220.675781 338.980469 218.789062 342.183594 216.894531 345.386719 C 215.796875 347.238281 214.707031 349.09375 213.621094 350.953125 C 210.242188 356.742188 206.804688 362.5 203.304688 368.21875 C 202.695312 369.21875 202.09375 370.222656 201.492188 371.230469 C 199.230469 375.003906 196.800781 378.617188 194.195312 382.164062 L 193.710938 382.828125 C 191.761719 385.472656 189.667969 387.941406 187.421875 390.335938 C 186.679688 391.132812 185.96875 391.9375 185.265625 392.765625 C 182.195312 396.292969 178.808594 399.421875 175.144531 402.316406 L 173.265625 403.898438 C 159.066406 415.449219 141.96875 422.261719 124.019531 425.183594 C 108.8125 427.488281 92.550781 425.417969 78.046875 420.636719 L 77.160156 420.355469 C 65.203125 416.515625 54.203125 410.417969 44.335938 402.683594 L 43.363281 401.925781 C 40.363281 399.53125 37.585938 396.902344 34.808594 394.253906 L 33.921875 393.417969 C 31.964844 391.519531 30.261719 389.4375 28.578125 387.292969 L 28.082031 386.671875 C 18.171875 374.21875 11.753906 358.992188 9.160156 343.324219 L 8.988281 342.300781 C 8.25 337.800781 7.648438 333.332031 7.605469 328.765625 L 7.597656 327.765625 C 7.527344 319.875 7.753906 312.265625 9.160156 304.484375 L 9.363281 303.347656 C 12.15625 288.109375 18.527344 274.191406 26.410156 260.96875 C 27.558594 259.035156 28.695312 257.09375 29.828125 255.152344 C 30.359375 254.246094 30.890625 253.339844 31.421875 252.433594 C 35.402344 245.652344 39.351562 238.851562 43.277344 232.039062 C 44.421875 230.050781 45.570312 228.0625 46.71875 226.074219 L 48.089844 223.691406 L 50.839844 218.929688 L 51.527344 217.738281 L 52.898438 215.359375 C 54.050781 213.363281 55.199219 211.371094 56.347656 209.375 C 58.773438 205.167969 61.207031 200.96875 63.65625 196.773438 C 66.148438 192.503906 68.617188 188.222656 71.082031 183.9375 C 73.75 179.304688 76.421875 174.675781 79.121094 170.058594 C 80.972656 166.894531 82.804688 163.71875 84.617188 160.53125 C 88.457031 153.800781 92.332031 147.089844 96.242188 140.398438 C 98.015625 137.363281 99.761719 134.308594 101.503906 131.25 C 103.195312 128.285156 104.898438 125.328125 106.625 122.378906 C 108.46875 119.230469 110.292969 116.070312 112.097656 112.898438 C 114.675781 108.386719 117.265625 103.878906 119.867188 99.378906 C 120.554688 98.183594 121.246094 96.988281 121.933594 95.792969 C 124.355469 91.585938 126.792969 87.386719 129.242188 83.195312 C 130.359375 81.28125 131.46875 79.367188 132.5625 77.441406 C 139.75 64.820312 148.335938 52.144531 159.800781 42.984375 C 160.875 42.121094 161.914062 41.226562 162.960938 40.328125 C 165.421875 38.277344 168.035156 36.511719 170.746094 34.808594 L 171.464844 34.355469 C 184.914062 25.953125 201.066406 20.523438 217.03125 20.445312 M 212.515625 85.007812 L 211.789062 85.25 C 205.675781 87.367188 200.300781 91.140625 196.027344 96 C 193.371094 99.324219 191.234375 102.972656 189.066406 106.625 L 188.203125 108.078125 C 187.328125 109.546875 186.457031 111.015625 185.585938 112.488281 C 183.875 115.378906 182.15625 118.265625 180.425781 121.144531 C 178.871094 123.738281 177.332031 126.339844 175.808594 128.953125 L 174.996094 130.339844 C 172.683594 134.292969 170.375 138.242188 168.070312 142.199219 C 167.441406 143.277344 166.8125 144.355469 166.183594 145.429688 C 163.734375 149.621094 161.296875 153.824219 158.875 158.03125 C 157.355469 160.671875 155.820312 163.304688 154.28125 165.9375 C 152.433594 169.101562 150.601562 172.277344 148.785156 175.464844 C 145.152344 181.832031 141.492188 188.1875 137.792969 194.515625 C 134.117188 200.804688 130.515625 207.132812 126.9375 213.480469 C 125.046875 216.828125 123.132812 220.164062 121.207031 223.492188 C 119.390625 226.640625 117.582031 229.792969 115.78125 232.949219 C 114.007812 236.0625 112.21875 239.164062 110.425781 242.265625 C 108.636719 245.355469 106.875 248.464844 105.136719 251.585938 C 103.058594 255.3125 100.925781 259.003906 98.769531 262.683594 C 94.867188 269.34375 91.042969 276.042969 87.222656 282.746094 C 86.34375 284.28125 85.46875 285.8125 84.585938 287.34375 C 83.132812 289.878906 81.683594 292.417969 80.242188 294.957031 L 79.605469 296.078125 C 74.285156 305.484375 70.609375 314.34375 70.601562 325.285156 C 70.640625 328.933594 70.972656 332.1875 72.183594 335.628906 L 72.449219 336.40625 C 74.503906 342.199219 77.757812 347.65625 82.265625 351.886719 C 88.164062 356.882812 94.65625 360.125 102.226562 361.644531 C 109.214844 362.773438 117.410156 362.597656 124.089844 360.21875 C 130.472656 357.777344 136.003906 353.664062 140.449219 348.5 C 141.660156 346.953125 142.808594 345.359375 143.894531 343.722656 L 144.375 343 C 146.074219 340.417969 147.652344 337.769531 149.21875 335.101562 L 150.136719 333.550781 C 152.089844 330.242188 154.03125 326.925781 155.960938 323.601562 C 158.085938 319.949219 160.246094 316.316406 162.40625 312.683594 L 163.289062 311.199219 L 163.71875 310.480469 C 165.046875 308.242188 166.367188 306.003906 167.683594 303.757812 C 169.550781 300.574219 171.433594 297.402344 173.3125 294.226562 L 174.042969 292.988281 L 176.335938 289.121094 L 176.71875 288.46875 C 178.070312 286.183594 179.429688 283.90625 180.800781 281.628906 C 183.742188 276.742188 186.601562 271.804688 189.480469 266.878906 C 193.195312 260.53125 196.933594 254.195312 200.695312 247.875 C 203.191406 243.679688 205.671875 239.476562 208.136719 235.265625 L 209.722656 232.554688 L 210.121094 231.871094 C 212.1875 228.351562 214.273438 224.839844 216.382812 221.347656 C 218.132812 218.4375 219.847656 215.511719 221.554688 212.574219 C 223.167969 209.800781 224.796875 207.03125 226.441406 204.273438 C 228.285156 201.167969 230.117188 198.050781 231.9375 194.929688 C 233.976562 191.429688 236.03125 187.941406 238.101562 184.460938 C 239.925781 181.382812 241.742188 178.300781 243.546875 175.210938 C 245.539062 171.808594 247.535156 168.414062 249.546875 165.019531 C 250.640625 163.167969 251.730469 161.3125 252.816406 159.453125 C 255.421875 154.988281 258.050781 150.539062 260.746094 146.128906 C 262.84375 142.695312 264.898438 139.238281 266.90625 135.753906 L 267.609375 134.535156 C 268.464844 133.042969 268.464844 133.042969 269.308594 131.539062 L 269.765625 130.804688 C 270.105469 130.066406 270.105469 130.066406 269.976562 129.199219 C 269.625 128.082031 269.140625 127.167969 268.550781 126.15625 L 267.839844 124.917969 L 267.066406 123.59375 L 266.269531 122.214844 C 265.722656 121.269531 265.171875 120.320312 264.625 119.375 C 263.867188 118.078125 263.117188 116.777344 262.371094 115.472656 C 261.023438 113.128906 259.671875 110.792969 258.316406 108.457031 L 257.664062 107.324219 C 253.203125 99.621094 248.683594 92.546875 240.859375 87.882812 C 234.582031 84.417969 228.171875 83.355469 221.101562 83.4375 C 218.097656 83.527344 215.359375 84.054688 212.515625 85.007812 "/><path style=" stroke:none;fill-rule:nonzero;fill:#fd7979;fill-opacity:1;" d="M 217.03125 20.445312 L 218.101562 20.4375 C 232.875 20.351562 232.875 20.351562 239.265625 21.617188 L 240.457031 21.851562 C 257.285156 25.207031 272.917969 31.84375 286.164062 42.871094 L 286.738281 43.339844 C 291.523438 47.300781 295.882812 51.535156 299.722656 56.425781 C 300.058594 56.832031 300.394531 57.238281 300.734375 57.640625 C 305.828125 63.777344 309.742188 70.644531 313.679688 77.558594 C 315.039062 79.929688 316.421875 82.285156 317.804688 84.640625 C 319.011719 86.699219 320.191406 88.777344 321.339844 90.871094 C 320.625 90.550781 320.625 90.550781 319.875 90.136719 C 319.601562 89.359375 319.601562 89.359375 319.507812 88.671875 L 318.042969 88.671875 L 317.675781 87.9375 L 316.941406 88.738281 C 315.773438 89.910156 314.417969 90.902344 312.914062 91.601562 L 312.179688 91.234375 C 312.652344 90.683594 313.125 90.132812 313.601562 89.585938 L 314.398438 88.660156 L 315.109375 87.9375 L 315.84375 87.9375 L 315.476562 87.207031 C 314.640625 87.765625 313.808594 88.328125 312.980469 88.898438 L 312.269531 89.375 C 311.140625 90.15625 310.414062 90.765625 309.664062 91.933594 C 309.21875 93.148438 308.976562 94.292969 308.769531 95.5625 C 308.347656 97.683594 307.722656 99.066406 306.449219 100.789062 C 305.042969 102.785156 304.996094 105.445312 304.691406 107.800781 L 304.484375 108.824219 L 303.753906 109.554688 L 303.410156 110.816406 C 303.019531 112.121094 303.019531 112.121094 302.492188 112.714844 L 301.921875 113.21875 L 301.347656 114.207031 L 300.820312 115.050781 L 300.089844 115.050781 C 299.566406 115.9375 299.355469 116.484375 299.308594 117.527344 L 299.355469 118.351562 L 298.257812 118.351562 L 297.890625 119.449219 L 298.988281 119.816406 C 298.640625 120.367188 298.289062 120.917969 297.9375 121.464844 L 297.34375 122.390625 L 296.789062 123.113281 L 296.058594 123.113281 L 296.058594 123.847656 L 294.957031 123.847656 L 294.957031 124.945312 L 293.492188 125.3125 L 293.492188 126.410156 C 292.898438 127.035156 292.289062 127.648438 291.660156 128.242188 L 290.859375 129.273438 L 290.195312 130.074219 L 289.460938 130.074219 L 289.1875 130.695312 C 288.644531 131.695312 288.019531 132.523438 287.265625 133.371094 L 286.53125 133.371094 L 286.464844 133.992188 C 286.164062 134.839844 286.164062 134.839844 285.292969 135.847656 L 284.332031 136.671875 L 283.234375 136.671875 L 283.234375 137.769531 C 281.539062 139.5 279.269531 140.636719 277.003906 141.433594 L 276.273438 141.433594 L 275.851562 140.6875 C 275.222656 139.570312 274.589844 138.453125 273.957031 137.335938 L 273.296875 136.164062 L 272.65625 135.027344 L 272.070312 133.988281 L 271.507812 133.007812 L 270.933594 131.988281 L 270.410156 131.175781 L 269.675781 130.808594 L 269.519531 129.636719 C 269.300781 128.183594 268.925781 127.34375 268.183594 126.082031 L 267.472656 124.855469 L 266.699219 123.546875 L 265.902344 122.179688 C 265.355469 121.242188 264.808594 120.300781 264.257812 119.363281 C 263.265625 117.671875 262.289062 115.96875 261.3125 114.269531 C 260.199219 112.328125 259.074219 110.394531 257.953125 108.457031 L 257.296875 107.324219 C 253.015625 99.933594 248.640625 92.691406 241.058594 88.242188 C 234.796875 84.761719 228.167969 83.722656 221.101562 83.804688 C 218.097656 83.894531 215.359375 84.421875 212.515625 85.375 L 211.789062 85.617188 C 205.882812 87.660156 200.503906 91.265625 196.394531 96 C 193.777344 99.363281 191.605469 102.964844 189.433594 106.625 L 188.570312 108.078125 C 187.695312 109.546875 186.824219 111.015625 185.953125 112.488281 C 184.242188 115.378906 182.523438 118.265625 180.792969 121.144531 C 179.238281 123.738281 177.699219 126.339844 176.171875 128.953125 L 175.359375 130.339844 C 173.050781 134.292969 170.742188 138.242188 168.4375 142.199219 C 167.808594 143.277344 167.179688 144.355469 166.550781 145.429688 C 164.101562 149.625 161.664062 153.824219 159.242188 158.03125 C 157.71875 160.671875 156.1875 163.304688 154.648438 165.9375 C 152.878906 168.964844 151.128906 172 149.394531 175.046875 C 148.332031 176.910156 147.265625 178.777344 146.195312 180.640625 L 145.636719 181.621094 C 145.175781 182.417969 144.714844 183.210938 144.25 184.003906 L 143.523438 185.257812 L 142.898438 186.136719 L 141.800781 186.5 C 142 184.820312 142.441406 183.625 143.277344 182.15625 L 143.96875 180.925781 L 144.335938 180.285156 C 144.710938 179.625 145.085938 178.964844 145.457031 178.300781 C 146.390625 176.640625 147.335938 174.984375 148.28125 173.328125 C 148.640625 172.695312 149 172.066406 149.359375 171.433594 C 149.671875 170.882812 149.984375 170.332031 150.300781 169.785156 C 151.027344 168.507812 151.328125 167.851562 151.328125 166.347656 L 150.667969 166.214844 L 149.792969 166.027344 L 148.929688 165.847656 C 148.027344 165.617188 148.027344 165.617188 147.179688 165.214844 C 145.871094 164.773438 144.6875 164.890625 143.335938 165.019531 L 142.566406 165.085938 C 141.941406 165.136719 141.320312 165.191406 140.699219 165.25 L 140.699219 164.515625 L 139.875 164.195312 C 138.867188 163.785156 138.867188 163.785156 138.066406 163.351562 L 137.402344 163.050781 L 136.671875 163.417969 C 136.167969 162.820312 135.679688 162.207031 135.203125 161.585938 L 135.203125 160.851562 L 133.738281 160.488281 L 133.738281 159.753906 L 133.097656 159.503906 C 132.050781 158.890625 131.511719 158.171875 130.808594 157.1875 C 130.546875 156.707031 130.296875 156.222656 130.074219 155.722656 L 129.34375 156.089844 L 128.839844 155.378906 C 128.300781 154.589844 128.300781 154.589844 127.511719 154.257812 L 127.511719 153.523438 L 126.824219 153.226562 C 126.042969 152.792969 126.042969 152.792969 125.3125 151.691406 L 124.578125 150.960938 L 124.578125 149.496094 L 123.113281 149.859375 L 122.746094 148.761719 C 122.261719 148.394531 121.773438 148.027344 121.28125 147.664062 L 121.28125 146.929688 L 120.183594 146.5625 L 120.089844 145.691406 L 119.816406 144.730469 C 119.207031 144.273438 119.207031 144.273438 118.351562 144 L 117.203125 143.472656 C 115.753906 142.851562 114.296875 142.5 112.761719 142.167969 L 111.109375 141.789062 L 109.554688 141.433594 C 106.972656 140.84375 104.6875 140.199219 102.59375 138.503906 L 102.226562 137.769531 C 101.558594 137.820312 101.558594 137.820312 100.761719 138.136719 C 99.140625 139.417969 98.355469 140.945312 97.40625 142.757812 C 96.605469 144.234375 95.734375 145.660156 94.855469 147.089844 L 93.800781 148.800781 L 93.257812 149.6875 C 90.78125 153.726562 88.359375 157.792969 86.03125 161.917969 C 85.40625 162.992188 84.75 164.03125 84.066406 165.066406 C 82.828125 166.972656 81.855469 168.960938 80.894531 171.015625 C 80.195312 172.300781 79.347656 173.292969 78.410156 174.410156 C 78.035156 175.101562 77.683594 175.804688 77.359375 176.515625 C 76.496094 178.300781 75.523438 179.855469 74.355469 181.449219 C 73.316406 182.949219 72.402344 184.523438 71.488281 186.101562 C 70.175781 188.347656 70.175781 188.347656 69.25 189.066406 L 68.519531 189.066406 C 68.992188 187.820312 69.558594 186.617188 70.222656 185.457031 L 70.804688 184.433594 L 71.425781 183.339844 L 72.074219 182.199219 C 73.695312 179.355469 75.328125 176.523438 76.972656 173.695312 C 78.21875 171.546875 79.460938 169.394531 80.703125 167.242188 L 81.40625 166.023438 C 82.582031 163.984375 83.757812 161.941406 84.933594 159.902344 C 87.355469 155.695312 89.789062 151.5 92.238281 147.308594 C 94.496094 143.4375 96.734375 139.554688 98.972656 135.671875 C 99.65625 134.484375 100.339844 133.296875 101.027344 132.113281 C 103.390625 128.019531 105.746094 123.921875 108.089844 119.816406 C 111.933594 113.082031 115.808594 106.371094 119.71875 99.675781 C 121.277344 97.003906 122.828125 94.328125 124.371094 91.648438 L 125.0625 90.453125 C 126.222656 88.4375 127.386719 86.417969 128.542969 84.402344 C 137.164062 69.425781 146.074219 53.949219 159.800781 42.984375 C 160.875 42.121094 161.914062 41.226562 162.960938 40.328125 C 165.421875 38.277344 168.035156 36.511719 170.746094 34.808594 L 171.464844 34.355469 C 184.914062 25.953125 201.066406 20.523438 217.03125 20.445312 "/><path style=" stroke:none;fill-rule:nonzero;fill:#df3c3d;fill-opacity:1;" d="M 101.128906 137.402344 L 101.882812 137.378906 C 102.59375 137.769531 102.59375 137.769531 103.191406 138.433594 C 104.710938 139.835938 106.523438 140.417969 108.519531 140.890625 C 109.714844 141.148438 110.90625 141.394531 112.105469 141.625 C 114.535156 142.09375 116.957031 142.609375 119.058594 143.953125 C 119.882812 144.800781 120.136719 145.46875 120.546875 146.5625 C 121.355469 147.476562 122.09375 148.082031 123.113281 148.761719 L 123.113281 149.859375 L 124.578125 149.496094 L 125.3125 151.328125 L 126.042969 150.960938 L 126.042969 152.792969 L 127.875 153.160156 L 127.875 154.257812 L 128.609375 153.890625 L 129.066406 154.53125 C 129.699219 155.382812 129.699219 155.382812 130.511719 156.136719 L 131.175781 156.824219 L 131.175781 157.554688 C 131.652344 157.933594 132.144531 158.296875 132.640625 158.65625 C 133.136719 159.136719 133.625 159.625 134.105469 160.121094 L 134.929688 160.898438 L 135.570312 161.585938 L 135.570312 162.320312 C 135.789062 162.386719 136.003906 162.453125 136.226562 162.519531 C 139.347656 163.511719 139.347656 163.511719 140.699219 164.515625 L 140.699219 165.25 L 141.59375 165.089844 L 142.898438 164.882812 L 143.597656 164.714844 C 145.285156 164.382812 146.59375 164.550781 148.242188 165.074219 C 149.316406 165.445312 150.320312 165.8125 151.328125 166.347656 C 151.628906 167.007812 151.628906 167.007812 151.691406 167.816406 C 151.371094 168.65625 151.371094 168.65625 150.855469 169.585938 L 150.273438 170.644531 L 149.632812 171.777344 L 148.984375 172.945312 C 147.859375 174.976562 146.710938 176.996094 145.5625 179.011719 L 144.910156 180.167969 C 144.492188 180.898438 144.074219 181.628906 143.652344 182.355469 L 143.078125 183.359375 L 142.570312 184.234375 C 142.1875 184.996094 141.96875 185.671875 141.800781 186.5 L 142.53125 186.867188 C 139.671875 191.882812 136.808594 196.894531 133.921875 201.890625 C 131.285156 206.460938 128.660156 211.035156 126.050781 215.621094 C 124.707031 217.972656 123.359375 220.328125 122.015625 222.683594 L 120.917969 224.605469 L 120.550781 225.246094 L 118.339844 229.117188 L 116.496094 232.347656 L 116.128906 232.992188 C 114.359375 236.089844 112.578125 239.179688 110.792969 242.265625 C 109.003906 245.355469 107.242188 248.464844 105.503906 251.585938 C 103.425781 255.3125 101.292969 259.003906 99.132812 262.683594 C 95.234375 269.34375 91.410156 276.042969 87.585938 282.746094 C 86.710938 284.28125 85.832031 285.8125 84.953125 287.34375 C 83.5 289.878906 82.050781 292.417969 80.609375 294.957031 L 79.972656 296.078125 C 74.652344 305.484375 70.972656 314.34375 70.96875 325.285156 C 71.007812 328.933594 71.335938 332.1875 72.550781 335.628906 L 72.816406 336.40625 C 74.59375 341.414062 77.113281 345.832031 80.816406 349.675781 L 81.34375 350.285156 L 81.34375 351.019531 L 82 351.316406 C 82.820312 351.761719 83.355469 352.226562 84.023438 352.875 C 87.25 355.757812 91.292969 357.800781 95.265625 359.445312 L 94.167969 360.546875 C 89.730469 359.289062 86.074219 356.730469 82.441406 353.949219 L 81.511719 353.257812 C 79.816406 351.800781 78.613281 349.890625 77.3125 348.089844 L 76.621094 347.179688 C 74.710938 344.617188 73.433594 341.851562 72.183594 338.929688 L 71.734375 337.886719 C 70.773438 335.457031 70.308594 332.992188 69.878906 330.425781 C 69.644531 329.039062 69.644531 329.039062 69.226562 327.734375 C 68.265625 324.179688 68.871094 320.421875 69.59375 316.875 C 69.890625 315.40625 70.039062 314.046875 69.984375 312.546875 L 70.71875 312.179688 C 70.8125 311.457031 70.90625 310.734375 70.980469 310.011719 C 71.109375 309.070312 71.414062 308.273438 71.816406 307.417969 L 70.71875 306.683594 C 68.292969 306.570312 65.933594 307.4375 63.6875 308.242188 L 62.59375 308.628906 C 51.707031 312.574219 41.308594 317.773438 31.269531 323.523438 C 18.597656 330.773438 18.597656 330.773438 11.417969 330.882812 L 10.625 330.867188 C 10.203125 331.859375 10.203125 331.859375 9.894531 333.066406 L 10.054688 334.035156 C 10.308594 335.566406 10.285156 337.035156 10.257812 338.585938 C 10.230469 340.355469 10.261719 341.949219 10.625 343.691406 C 10.28125 344.722656 10.28125 344.722656 9.894531 345.523438 L 9.527344 345.523438 C 9.289062 344.011719 9.050781 342.5 8.816406 340.988281 L 8.613281 339.703125 L 8.417969 338.4375 L 8.238281 337.285156 C 7.847656 334.445312 7.632812 331.636719 7.605469 328.765625 L 7.597656 327.765625 C 7.527344 319.875 7.753906 312.265625 9.160156 304.484375 L 9.363281 303.347656 C 12.15625 288.109375 18.527344 274.191406 26.410156 260.96875 C 27.558594 259.035156 28.695312 257.09375 29.828125 255.152344 C 30.359375 254.246094 30.890625 253.339844 31.421875 252.433594 C 35.402344 245.652344 39.351562 238.851562 43.277344 232.039062 C 44.421875 230.050781 45.570312 228.0625 46.71875 226.074219 L 48.089844 223.691406 L 50.839844 218.929688 L 51.527344 217.738281 L 52.898438 215.359375 C 54.050781 213.363281 55.199219 211.371094 56.347656 209.375 C 59.210938 204.40625 62.078125 199.4375 64.992188 194.492188 C 65.414062 193.757812 65.832031 193.015625 66.242188 192.269531 L 66.902344 191.078125 L 67.496094 189.992188 C 68.226562 188.960938 68.894531 188.578125 69.984375 187.96875 C 70.5625 187.132812 71.09375 186.269531 71.585938 185.378906 C 71.875 184.878906 72.164062 184.378906 72.453125 183.878906 L 72.878906 183.144531 C 73.402344 182.273438 73.984375 181.457031 74.585938 180.640625 C 75.820312 178.929688 76.789062 177.117188 77.738281 175.238281 C 78.257812 174.222656 78.78125 173.308594 79.5 172.417969 C 80.46875 171.199219 81.121094 169.886719 81.824219 168.503906 C 82.929688 166.367188 84.09375 164.328125 85.417969 162.320312 C 86.316406 160.886719 87.125 159.40625 87.9375 157.921875 C 89.089844 155.828125 90.277344 153.785156 91.585938 151.78125 C 92.890625 149.714844 94.109375 147.597656 95.339844 145.484375 C 99.167969 138.949219 99.167969 138.949219 101.128906 137.402344 "/><path style=" stroke:none;fill-rule:nonzero;fill:#e44041;fill-opacity:1;" d="M 315.476562 86.839844 L 316.210938 87.207031 L 315.675781 87.808594 L 314.972656 88.601562 L 314.277344 89.386719 C 313.59375 90.167969 313.59375 90.167969 312.914062 91.234375 C 313.570312 90.832031 314.226562 90.429688 314.882812 90.023438 L 315.988281 89.339844 C 317.015625 88.707031 317.015625 88.707031 317.675781 87.570312 L 318.042969 88.671875 L 319.507812 88.671875 C 320.058594 89.496094 320.058594 89.496094 320.605469 90.503906 L 321.296875 91.167969 C 322.167969 92.066406 322.707031 92.957031 323.316406 94.046875 L 324.023438 95.296875 L 324.394531 95.960938 C 324.914062 96.886719 325.4375 97.8125 325.960938 98.738281 C 326.230469 99.214844 326.496094 99.6875 326.765625 100.164062 C 327.996094 102.34375 329.257812 104.507812 330.523438 106.671875 C 332.988281 110.886719 335.429688 115.113281 337.867188 119.347656 C 339.015625 121.335938 340.160156 123.324219 341.308594 125.3125 C 342.6875 127.703125 344.066406 130.089844 345.445312 132.480469 C 347.65625 136.328125 349.882812 140.167969 352.117188 144 C 355.644531 150.039062 359.152344 156.085938 362.585938 162.179688 C 365.03125 166.53125 367.550781 170.835938 370.074219 175.144531 C 373.058594 180.238281 376.015625 185.351562 378.945312 190.484375 C 380.980469 194.050781 383.03125 197.609375 385.09375 201.160156 L 383.996094 201.160156 C 383.421875 200.769531 383.421875 200.769531 382.898438 200.058594 C 382.648438 199.207031 382.402344 198.351562 382.164062 197.496094 L 381.429688 197.128906 L 380.949219 196.28125 C 380.269531 195.195312 379.5 194.613281 378.5 193.828125 L 378.5 193.097656 C 378.269531 192.601562 378.023438 192.113281 377.765625 191.632812 L 376.300781 191.996094 L 376.300781 191.265625 L 372.636719 191.632812 L 372.636719 191.996094 L 371.539062 192.203125 C 370.328125 192.546875 369.640625 193.046875 368.734375 193.910156 C 367.15625 195.332031 365.464844 196.394531 363.636719 197.472656 C 360.71875 199.234375 357.886719 201.097656 355.09375 203.058594 L 354.015625 203.816406 C 353.328125 204.300781 352.636719 204.785156 351.949219 205.269531 C 347.496094 208.390625 342.890625 211.234375 338.195312 213.984375 L 337.398438 214.449219 C 334.621094 216.074219 331.804688 217.574219 328.898438 218.953125 L 328.082031 219.335938 C 326.199219 220.210938 326.199219 220.210938 325.371094 220.210938 L 325.738281 221.242188 C 326.105469 222.410156 326.105469 222.410156 326.105469 223.507812 C 326.617188 224.460938 327.144531 225.378906 327.707031 226.304688 L 328.722656 228 L 329.25 228.875 C 330.046875 230.203125 330.835938 231.539062 331.621094 232.875 L 332.082031 233.652344 C 333.398438 235.898438 334.675781 238.164062 335.949219 240.433594 C 336.660156 241.707031 337.378906 242.972656 338.101562 244.234375 C 339.195312 246.140625 340.28125 248.050781 341.359375 249.96875 C 344.769531 256.011719 348.253906 262.011719 351.753906 268.003906 C 352.894531 269.953125 354.023438 271.90625 355.140625 273.867188 C 357.316406 277.691406 359.558594 281.476562 361.828125 285.25 L 363.058594 287.300781 C 363.339844 287.769531 363.621094 288.238281 363.90625 288.707031 C 367.523438 294.683594 371.140625 300.914062 373.738281 307.417969 L 373.738281 308.148438 L 372.269531 308.148438 L 371.796875 307.015625 C 368.609375 299.542969 364.523438 292.582031 360.28125 285.667969 C 356.578125 279.628906 353.074219 273.472656 349.566406 267.316406 C 347.921875 264.433594 346.269531 261.558594 344.605469 258.683594 C 342.714844 255.40625 340.828125 252.125 338.949219 248.835938 L 338.582031 248.191406 C 337.347656 246.027344 336.113281 243.863281 334.875 241.695312 C 332.246094 237.078125 329.601562 232.46875 326.917969 227.882812 C 325.351562 225.210938 323.800781 222.527344 322.257812 219.84375 C 320.472656 216.746094 318.679688 213.65625 316.875 210.570312 C 315.242188 207.777344 313.621094 204.976562 312.019531 202.164062 L 311.472656 201.207031 C 310.132812 198.863281 310.132812 198.863281 309.5625 197.855469 C 309.207031 197.230469 308.851562 196.605469 308.492188 195.984375 L 307.929688 194.996094 C 307.464844 194.207031 307.464844 194.207031 306.898438 193.683594 C 306.023438 192.796875 305.410156 191.746094 304.761719 190.691406 C 304.601562 190.441406 304.445312 190.1875 304.285156 189.925781 C 301.8125 185.910156 299.496094 181.800781 297.15625 177.707031 L 296.425781 176.429688 C 295.445312 174.714844 294.464844 173 293.488281 171.28125 C 291.625 168.023438 289.75 164.769531 287.871094 161.519531 C 286.664062 159.429688 285.460938 157.335938 284.265625 155.238281 L 283.878906 154.558594 C 283.246094 153.449219 282.617188 152.339844 281.988281 151.230469 C 280.953125 149.417969 279.917969 147.613281 278.808594 145.847656 L 278.320312 145.066406 C 277.914062 144.425781 277.5 143.789062 277.082031 143.152344 L 276.636719 142.167969 C 276.816406 141.34375 276.816406 141.34375 277.371094 140.699219 C 278.191406 140.289062 278.191406 140.289062 279.15625 139.96875 C 280.605469 139.441406 281.480469 138.957031 282.5 137.769531 L 283.234375 137.769531 L 283.234375 136.671875 L 284.332031 136.304688 C 284.703125 135.816406 285.066406 135.328125 285.433594 134.839844 L 286.164062 134.839844 L 286.234375 134.21875 C 286.65625 133.023438 287.453125 132.410156 288.363281 131.539062 L 288.980469 130.695312 L 289.460938 130.074219 L 290.195312 130.074219 L 290.492188 129.425781 C 291.066406 128.355469 291.824219 127.554688 292.636719 126.660156 C 293.207031 126.019531 293.207031 126.019531 293.492188 124.945312 C 294.25 124.695312 294.25 124.695312 294.957031 124.578125 L 294.957031 123.480469 L 296.058594 123.847656 L 296.058594 123.113281 L 296.789062 123.113281 L 297.089844 122.496094 C 297.5625 121.574219 298.082031 120.699219 298.621094 119.816406 L 297.890625 119.449219 L 298.257812 117.617188 L 298.988281 118.351562 L 298.851562 117.367188 L 298.988281 116.152344 C 300.019531 115.234375 300.019531 115.234375 300.625 114.796875 C 301.488281 114.0625 301.855469 113.148438 302.285156 112.121094 L 303.019531 112.121094 L 303.15625 110.882812 L 303.386719 109.554688 L 304.117188 108.824219 C 304.328125 107.875 304.511719 106.921875 304.667969 105.960938 C 305.039062 103.703125 305.414062 101.78125 306.820312 99.9375 C 307.96875 98.183594 308.296875 96.261719 308.660156 94.226562 C 308.9375 92.816406 309.234375 91.988281 310.066406 90.777344 C 311.113281 89.738281 312.152344 88.957031 313.394531 88.167969 L 314.582031 87.402344 Z M 315.476562 86.839844 "/><path style=" stroke:none;fill-rule:nonzero;fill:#dd5e60;fill-opacity:1;" d="M 178.074219 285.433594 L 178.441406 285.433594 C 178.601562 286.347656 178.601562 286.347656 178.441406 287.628906 C 177.675781 288.699219 176.800781 289.632812 175.875 290.5625 C 175.875 289.199219 176.308594 288.558594 176.976562 287.378906 L 177.59375 286.273438 Z M 178.074219 285.433594 "/><path style=" stroke:none;fill-rule:nonzero;fill:#cd5758;fill-opacity:1;" d="M 149.496094 334.164062 L 149.859375 335.628906 L 149.128906 335.628906 L 148.96875 336.476562 C 148.761719 337.460938 148.761719 337.460938 148.394531 338.5625 C 147.640625 338.8125 147.640625 338.8125 146.929688 338.929688 C 147.53125 337.179688 148.492188 335.707031 149.496094 334.164062 "/><path style=" stroke:none;fill-rule:nonzero;fill:#ce5d5e;fill-opacity:1;" d="M 182.105469 278.835938 L 182.835938 279.9375 L 182.105469 279.9375 L 182.035156 280.761719 L 181.738281 281.769531 C 180.800781 282.617188 180.800781 282.617188 179.90625 283.234375 C 180.480469 281.65625 181.257812 280.28125 182.105469 278.835938 "/><path style=" stroke:none;fill-rule:nonzero;fill:#d36e6f;fill-opacity:1;" d="M 158.289062 319.140625 L 158.65625 319.140625 C 158.792969 319.945312 158.792969 319.945312 158.65625 320.972656 C 157.980469 321.703125 157.265625 322.214844 156.457031 322.804688 C 156.945312 321.492188 157.515625 320.316406 158.289062 319.140625 "/><path style=" stroke:none;fill-rule:nonzero;fill:#d06364;fill-opacity:1;" d="M 172.578125 294.957031 L 173.3125 296.058594 L 170.746094 298.621094 C 171.234375 297.304688 171.832031 296.148438 172.578125 294.957031 "/><path style=" stroke:none;fill-rule:nonzero;fill:#d57576;fill-opacity:1;" d="M 145.097656 341.125 L 145.464844 342.59375 C 144.753906 343.597656 144.753906 343.597656 144 344.425781 L 143.265625 344.058594 Z M 145.097656 341.125 "/></g></svg>
